<?xml version="1.0" encoding="utf-8"?>
<!-- Generator: Adobe Illustrator 13.0.0, SVG Export Plug-In  -->
<!DOCTYPE svg PUBLIC "-//W3C//DTD SVG 1.1//EN" "http://www.w3.org/Graphics/SVG/1.1/DTD/svg11.dtd" [
	<!ENTITY ns_flows "http://ns.adobe.com/Flows/1.0/">
]>
<svg version="1.1"
	 xmlns="http://www.w3.org/2000/svg" xmlns:xlink="http://www.w3.org/1999/xlink" xmlns:a="http://ns.adobe.com/AdobeSVGViewerExtensions/3.0/"
	 x="0px" y="0px" width="64px" height="64px" viewBox="-1 0 64 64" enable-background="new -1 0 64 64" xml:space="preserve">
<defs>
</defs>
<linearGradient id="SVGID_1_" gradientUnits="userSpaceOnUse" x1="302.3994" y1="-325.333" x2="302.3993" y2="-387.3755" gradientTransform="matrix(1 0 0 -1 -265.5 -326)">
	<stop  offset="0" style="stop-color:#0C527D"/>
	<stop  offset="1" style="stop-color:#6BA3C6"/>
</linearGradient>
<path fill="url(#SVGID_1_)" d="M59.4,2.9c2.3,0,4.1,1.8,4.1,4.1v45c0,2.3-1.8,4.1-4.1,4.1h-45c-2.3,0-4.1-1.8-4.1-4.1V7
	c0-2.3,1.8-4.1,4.1-4.1H59.4z"/>
<line fill="none" x1="10.2" y1="33.8" x2="28.4" y2="2.9"/>
<line fill="none" x1="22.5" y1="56.2" x2="53.6" y2="3.1"/>
<line fill="none" x1="24.7" y1="56.2" x2="55.8" y2="3.1"/>
<line fill="none" x1="29.4" y1="56.2" x2="60.6" y2="3.1"/>
<line opacity="0.31" fill="none" stroke="#FFFFFF" stroke-width="0.05" enable-background="new    " x1="18.6" y1="56.1" x2="47.3" y2="2.9"/>
<line opacity="0.5" fill="none" stroke="#FFFFFF" stroke-width="0.05" enable-background="new    " x1="36" y1="56.1" x2="63.6" y2="6.1"/>
<line opacity="0.31" fill="none" stroke="#FFFFFF" stroke-width="0.05" enable-background="new    " x1="10.2" y1="48" x2="34.2" y2="2.9"/>
<line opacity="0.31" fill="none" stroke="#FFFFFF" stroke-width="0.05" enable-background="new    " x1="10.2" y1="16.6" x2="17.2" y2="2.9"/>
<line fill="none" x1="10.2" y1="51.8" x2="37.8" y2="3"/>
<line opacity="0.31" fill="none" stroke="#FFFFFF" stroke-width="0.25" enable-background="new    " x1="15.5" y1="56.1" x2="44.3" y2="2.8"/>
<line opacity="0.5" fill="none" stroke="#FFFFFF" stroke-width="0.25" enable-background="new    " x1="32.1" y1="56.2" x2="60.1" y2="2.9"/>
<line opacity="0.31" fill="none" stroke="#FFFFFF" stroke-width="0.25" enable-background="new    " x1="10" y1="43.7" x2="32.1" y2="2.8"/>
<line opacity="0.31" fill="none" stroke="#FFFFFF" stroke-width="0.25" enable-background="new    " x1="10.1" y1="20.7" x2="19.5" y2="2.8"/>
<line fill="none" x1="10" y1="49.9" x2="35.5" y2="2.9"/>
<path fill="none" d="M59.3,2.8c2.3,0,4.101,1.8,4.101,4.1v45c0,2.3-1.801,4.1-4.101,4.1h-45c-2.3,0-4.1-1.8-4.1-4.1V7
	c0-2.3,1.8-4.1,4.1-4.1h45V2.8z"/>
<linearGradient id="SVGID_2_" gradientUnits="userSpaceOnUse" x1="304.0879" y1="-376.8687" x2="304.0879" y2="-346.245" gradientTransform="matrix(1 0 0 -1 -265.5 -326)">
	<stop  offset="0" style="stop-color:#0C527D"/>
	<stop  offset="1" style="stop-color:#FFFFFF"/>
</linearGradient>
<path fill="url(#SVGID_2_)" d="M63.5,25.4c-1.1,0-2.4,0.3-3.4,0.7c2.9,3.2,1.801,5.2,1.801,5.2s-2-4-3.2-4.8c-1.7-1.7-5-1.6-5-1.7
	c0-0.5,2.899-1,5.3,0.3c0.3-1,0.4-1.1,0.5-2.2c0.7-6-4.3-10.6-9.7-10.6c-4.6,0-8.5,2.2-9.399,6.6c1.5,0.8,2.8,2.6,2.3,5.3
	c-0.7,3.2-4.3,4.3-5.9,2.4c0.101,0,0-0.2,0.2-0.2c0.3,0.1,2.7,1,3.9-0.5c1.3-1.5,1.899-5.4-3.101-6.5c-4.7-1-9.7,5.4-9.7,10.7
	c0,0.4,0-0.4,0,0c-0.9-0.5-1.9-0.5-3-0.5c-3.7,0-6.8,3.9-6.8,7.7c0,1.5,0.5,2.101,1.4,3.2c-2.7,0.5-6.9,3.1-6,3.1
	c0.7,0,18,0.101,34.6,0c-0.8-0.399-2.7-2-3.899-3.699C42.3,36.8,45.4,32.3,45.6,32.1C46.7,31,49.4,29.2,52,29.7
	c6.5,1.2,3.9,6.6,3.8,6.8c-0.1,0.2-1.8,2.9-4.6,1.5c-2.9-1.4-0.9-3.8,0.3-3.7c1.2,0.101,1.2,0.9,1.2,0.9s0.1,0.7-0.101,0.3
	c-0.199-0.4-0.399-0.6-0.8-0.6c-0.3,0-1.3,0.5-0.8,1.699c0.4,1.101,1.6,0.7,1.9,0.7c0.3,0,2.699-0.1,2.699-3.8c0-1.9-3-2.9-4.6-2.9
	c-0.2,0-5.4,0.7-5.3,6.5c0.1,3.7,3.5,6.4,5,6.4c4.399,0,9,0,12.899,0V25.4H63.5z"/>
<line fill="none" x1="42.6" y1="56.3" x2="63.6" y2="20.5"/>
<linearGradient id="SVGID_3_" gradientUnits="userSpaceOnUse" x1="304.6543" y1="-349.0195" x2="304.6543" y2="-378.2723" gradientTransform="matrix(1 0 0 -1 -265.5 -326)">
	<stop  offset="0" style="stop-color:#F3F8F9"/>
	<stop  offset="0.2636" style="stop-color:#CDE2E7"/>
	<stop  offset="0.5549" style="stop-color:#9FC8D1"/>
	<stop  offset="1" style="stop-color:#85A8B0"/>
</linearGradient>
<path fill="url(#SVGID_3_)" d="M63.5,25.4c-1.1,0-2.4,0.3-3.4,0.7c0.2,0.3,2.9,3.3,1.801,5.2c-0.801-2.1-1.101-3-3.2-4.8
	c-2.2-2-5-1.6-5-1.7c0-0.5,2.899-1,5.3,0.3c0.3-1,0.5-2,0.5-3.1c0-5.3-4.3-9.7-9.7-9.7c-4.6,0-8.5,2.2-9.399,6.6
	c0.5,0,2.899,1.7,2.3,5.3c-0.601,3.3-4.2,4.1-5.9,2.4c0.2-0.5,2.7,1.1,4.2-0.7c1.2-1.6,1.9-5.3-2.9-6.5
	c-4.699-1-9.899,4.5-9.899,9.8c0,0.4,0,0.8,0.1,1.2c-0.9-0.5-1.9-0.7-3-0.7c-3.7,0-6.8,3-6.8,6.8c0,1.5,0.5,3,1.4,4.1
	C17.1,41,14,42.8,15,42.8c0.7,0,15.8,0.101,32.4,0C41.1,38.6,45.3,32.6,45.9,32.1c1.1-1.1,3.699-2.8,6.3-2.4
	c6.5,1.2,3.8,6.7,3.7,6.899C55.8,36.8,54.1,39.4,51.2,38c-2.9-1.5-0.9-3.8,0.3-3.7c1.2,0.101,1.2,1,1.2,1s0,0.2-0.2-0.1
	c-0.6-0.7-2.1,0.2-1.6,1.399C51.3,37.7,52.8,37.4,53,37.4c0.3,0,3.3-0.601,2.4-4.101c-0.301-1.1-0.801-1.4-1.5-1.8
	c-2.5-1.7-6-0.2-7.5,2c-0.601,0.9-1,2.3-1,3.9c0,2.899,3,4.899,5.3,5.399c4.399,0,8.7,0,12.7,0V25.4H63.5z"/>
<rect fill="none" width="64" height="64"/>
<linearGradient id="SVGID_4_" gradientUnits="userSpaceOnUse" x1="289.0811" y1="-384.7373" x2="288.2475" y2="-326.2346" gradientTransform="matrix(1 0 0 -1 -265.5 -326)">
	<stop  offset="0" style="stop-color:#0C527D"/>
	<stop  offset="1" style="stop-color:#FFFFFF"/>
</linearGradient>
<polygon fill="url(#SVGID_4_)" points="25.7,42.9 19.7,56.2 21.2,56.2 27.2,42.9 "/>
<linearGradient id="SVGID_5_" gradientUnits="userSpaceOnUse" x1="287.374" y1="-345.4019" x2="287.374" y2="-398.6749" gradientTransform="matrix(1 0 0 -1 -265.5 -326)">
	<stop  offset="0" style="stop-color:#000000"/>
	<stop  offset="0.5" style="stop-color:#A3A3A3"/>
	<stop  offset="1" style="stop-color:#000000"/>
</linearGradient>
<path fill="url(#SVGID_5_)" d="M18.5,60.5L18.5,60.5L18.5,60.5l15-33.6c0.2-0.3,0-0.8-0.3-0.9c-0.3-0.2-0.8,0-0.9,0.3L18.5,57.1l0,0
	L17.2,60l0,0c-0.7,1.5-2.4,2.1-3.9,1.5c-1.5-0.7-2.1-2.4-1.5-3.9l0,0l0,0c0.1-0.3,0-0.699-0.4-0.899c-0.3-0.2-0.7,0-0.9,0.3l0,0l0,0
	l0,0c0,0,0,0,0,0.1c-0.9,2.2,0.1,4.7,2.2,5.601C15,63.7,17.5,62.7,18.5,60.5L18.5,60.5L18.5,60.5z"/>
<linearGradient id="SVGID_6_" gradientUnits="userSpaceOnUse" x1="257.9111" y1="-312.2236" x2="242.2144" y2="-288.1409" gradientTransform="matrix(0.9999 0.0143 0.0143 -0.9999 -220.7415 -268.9306)">
	<stop  offset="0" style="stop-color:#6D110F"/>
	<stop  offset="1" style="stop-color:#B32024"/>
</linearGradient>
<path fill="url(#SVGID_6_)" d="M5.5,30.3c1.8,0.7,3.1,2.1,3.2,3.5c1.7-0.6,4-0.399,6.3,0.7c2,1,3.5,2.5,4.2,4.1
	c2-0.8,4.9-0.699,7.7,0.4c3.3,1.2,5.7,3.5,6.4,5.7c1.601-0.601,3.8-0.601,5.9,0.2c2.5,0.899,4.399,2.699,5,4.5
	c1.1-0.801,2.8-1,4.5-0.301c2,0.801,3.3,2.5,3.3,4l0,0C52.6,41,46.8,31.2,32.4,25.4C19.3,20.1,8.2,23.8,0.9,30.7
	C2,29.9,3.8,29.7,5.5,30.3z"/>
<linearGradient id="SVGID_7_" gradientUnits="userSpaceOnUse" x1="243.5928" y1="-290.9302" x2="254.8809" y2="-304.7876" gradientTransform="matrix(0.9999 0.0143 0.0143 -0.9999 -220.7415 -268.9306)">
	<stop  offset="0" style="stop-color:#6D110F"/>
	<stop  offset="1" style="stop-color:#B32024"/>
</linearGradient>
<path opacity="0.5" fill="url(#SVGID_7_)" enable-background="new    " d="M8.7,33.8c1.7-0.6,4-0.399,6.3,0.7c2,1,3.5,2.5,4.2,4.1
	c2-0.8,4.9-0.699,7.7,0.4c3.3,1.2,5.7,3.5,6.4,5.7c1.601-0.601,3.8-0.601,5.9,0.2c2.5,0.899,4.399,2.699,5,4.5
	c1.1-0.801,0.899-18.9-11.8-24C20.6,20.6,8.6,32.4,8.7,33.8z"/>
<linearGradient id="SVGID_8_" gradientUnits="userSpaceOnUse" x1="261.0293" y1="-301.6294" x2="241.5499" y2="-293.4046" gradientTransform="matrix(0.9999 0.0143 0.0143 -0.9999 -220.7415 -268.9306)">
	<stop  offset="0" style="stop-color:#6D110F"/>
	<stop  offset="0.5275" style="stop-color:#B32024"/>
	<stop  offset="0.7249" style="stop-color:#981A1C"/>
	<stop  offset="1" style="stop-color:#6D110F"/>
</linearGradient>
<path opacity="0.5" fill="url(#SVGID_8_)" enable-background="new    " d="M19.3,38.6c2-0.8,5.4-0.699,7.7,0.4
	c3.2,1.4,5.7,3.5,6.4,5.7c0.6-1.3,4.8-16.8-0.4-19.1C27.8,23.3,19.8,37.3,19.3,38.6z"/>
</svg>
